<?xml version="1.0" encoding="UTF-8" standalone="no"?>
<!-- Created with Inkscape (http://www.inkscape.org/) -->

<svg
   width="187.21588mm"
   height="85.302139mm"
   viewBox="0 0 187.21588 85.302139"
   version="1.1"
   id="svg5"
   inkscape:version="1.1 (c68e22c387, 2021-05-23)"
   xmlns:inkscape="http://www.inkscape.org/namespaces/inkscape"
   xmlns:sodipodi="http://sodipodi.sourceforge.net/DTD/sodipodi-0.dtd"
   xmlns="http://www.w3.org/2000/svg"
   xmlns:svg="http://www.w3.org/2000/svg">
  <sodipodi:namedview
     id="namedview7"
     pagecolor="#ffffff"
     bordercolor="#666666"
     borderopacity="1.0"
     inkscape:pageshadow="2"
     inkscape:pageopacity="0"
     inkscape:pagecheckerboard="0"
     inkscape:document-units="mm"
     showgrid="false"
     showguides="false"
     fit-margin-top="0"
     fit-margin-left="0"
     fit-margin-right="0"
     fit-margin-bottom="0"
     inkscape:zoom="0.74118967"
     inkscape:cx="-87.69685"
     inkscape:cy="189.56012"
     inkscape:window-width="1920"
     inkscape:window-height="1017"
     inkscape:window-x="1272"
     inkscape:window-y="-8"
     inkscape:window-maximized="1"
     inkscape:current-layer="g6925" />
  <defs
     id="defs2" />
  <g
     inkscape:label="Camada 1"
     inkscape:groupmode="layer"
     id="layer1"
     transform="translate(-7.9168674,-12.872665)">
    <g
       id="g6925"
       transform="matrix(3.516156,0,0,3.516156,-214.47084,-134.05812)">
      <g
         id="g9112">
        <g
           aria-label="Localiza"
           id="text759"
           style="font-size:17.0737px;line-height:1.25;font-family:'Lobster 1.4';-inkscape-font-specification:'Lobster 1.4, ';fill:#ff0000;stroke-width:0.426843">
          <path
             d="m 69.923214,41.821484 c -0.221959,-0.01707 -0.443917,-0.03415 -0.682948,-0.03415 -2.851308,0 -5.992869,2.16836 -5.992869,4.439162 0,1.229306 0.6488,1.656149 1.826886,1.656149 -0.01707,-0.153663 -0.239032,-0.290253 -0.239032,-1.161012 0,-1.826886 0.904906,-3.107413 2.390318,-3.722066 l -2.543981,11.832074 c 0.136589,-0.01707 0.256105,-0.01707 0.392695,-0.01707 3.022045,0 5.173331,3.87573 7.61487,3.87573 0.92198,0 1.604928,-1.041496 1.775665,-2.680571 -0.495138,0.204884 -0.973201,0.273179 -1.434191,0.273179 -2.16836,0 -3.961098,-1.809812 -5.736763,-2.202507 z"
             id="path9015" />
          <path
             d="m 74.055044,45.731362 c -3.517182,0 -4.678194,4.097688 -4.678194,6.061163 0,1.946402 1.143938,2.697645 2.731792,2.697645 2.100065,0 3.807435,-1.980549 4.080614,-5.139184 1.24638,-0.204884 2.373245,-0.717095 3.022045,-1.417117 l -0.153663,-0.46099 c -0.734169,0.512211 -1.84396,1.024422 -2.62935,1.024422 -0.05122,0 -0.119516,0 -0.18781,-0.03415 0,-1.792739 -0.717096,-2.731792 -2.185434,-2.731792 z m -1.263454,7.222175 c -0.6488,0 -0.870759,-0.256106 -0.870759,-1.38297 0,-1.673222 1.05857,-4.79771 2.270803,-4.79771 0.443916,0 0.614653,0.27318 0.6488,0.990275 -0.307326,0.13659 -0.529285,0.443916 -0.529285,0.92198 0,0.341474 0.102443,0.631727 0.46099,0.717095 -0.273179,2.014697 -1.143938,3.55133 -1.980549,3.55133 z"
             id="path9017" />
          <path
             d="m 81.874785,48.343638 c 0.204884,0.136589 0.409768,0.204884 0.597579,0.204884 0.495137,0 0.904906,-0.409769 0.904906,-1.24638 0,-0.78539 -0.375621,-1.57078 -1.895181,-1.57078 -3.465961,0 -4.592825,4.097688 -4.592825,6.078237 0,1.929328 1.05857,2.714718 2.663497,2.714718 2.270802,0 3.722067,-1.587854 4.695268,-3.158634 h -0.580506 c -0.853685,0.973201 -1.673223,1.724443 -3.022045,1.724443 -0.819537,0 -1.229306,-0.273179 -1.229306,-1.43419 0,-1.895181 1.10979,-5.019668 2.185433,-5.019668 0.324401,0 0.478064,0.273179 0.478064,0.700022 0,0.290252 -0.06829,0.631726 -0.204884,1.007348 z"
             id="path9019" />
          <path
             d="m 89.404267,45.885025 -0.187811,0.904906 v -0.119516 c 0,-0.495137 -0.409769,-0.870758 -1.38297,-0.870758 -2.970824,0 -4.387941,3.670845 -4.387941,5.975795 0,2.03177 1.109791,2.748865 2.270802,2.748865 1.212233,0 2.014697,-0.78539 2.543982,-1.57078 0.102442,1.024422 0.717095,1.57078 1.673222,1.57078 0.92198,0 2.458613,-0.375621 3.431814,-3.158634 H 92.64827 c -0.256106,0.853685 -0.717096,1.604928 -1.38297,1.604928 -0.478064,0 -0.700022,-0.256106 -0.700022,-0.73417 0,-0.153663 0.01707,-0.3244 0.06829,-0.546358 l 1.229306,-5.805058 z m -1.041496,0.973201 c 0.546358,0 0.700022,0.443916 0.700022,0.648801 l -0.819538,3.858656 c -0.204884,0.990274 -0.92198,1.502485 -1.417117,1.502485 -0.307327,0 -0.853685,-0.01707 -0.853685,-1.331748 0,-1.604928 0.939053,-4.678194 2.390318,-4.678194 z"
             id="path9021" />
          <path
             d="m 94.47514,42.811759 -1.826886,8.553924 c -0.08537,0.409769 -0.136589,0.78539 -0.136589,1.10979 0,1.434191 0.802464,2.048844 1.826886,2.048844 0.921979,0 2.612276,-0.375621 3.585477,-3.158634 h -0.717096 c -0.256105,0.853685 -0.870758,1.502485 -1.536633,1.502485 -0.478063,0 -0.700021,-0.153663 -0.700021,-0.631727 0,-0.153663 0.01707,-0.3244 0.06829,-0.546358 l 1.963476,-9.219798 z"
             id="path9023" />
          <path
             d="m 98.709387,43.614223 c 0,0.751243 0.59758,1.348822 1.348823,1.348822 0.75124,0 1.3659,-0.597579 1.3659,-1.348822 0,-0.751243 -0.61466,-1.365896 -1.3659,-1.365896 -0.751243,0 -1.348823,0.614653 -1.348823,1.365896 z m -0.341474,2.270802 -1.161011,5.480658 c -0.08537,0.409769 -0.13659,0.78539 -0.13659,1.10979 0,1.434191 0.802464,2.048844 1.826886,2.048844 0.92198,0 1.792742,-0.546358 1.878102,-1.758591 -0.10244,0.05122 -0.23903,0.102442 -0.54635,0.102442 -0.478067,0 -0.700025,-0.153663 -0.700025,-0.631727 0,-0.153663 0.01707,-0.3244 0.06829,-0.546358 l 1.229315,-5.805058 z m 7.631947,6.983143 c -0.0512,0.27318 -0.3927,0.341474 -0.80247,0.341474 -0.46099,0 -1.00735,-0.08537 -1.2976,-0.102442 l 4.18306,-7.222175 h -4.38794 c -1.21224,0 -1.98055,1.024422 -1.98055,1.724444 0,0.495137 0.39269,0.751243 0.78539,0.751243 0.44391,0 0.92198,-0.27318 0.92198,-0.904907 0,-0.392695 -0.18781,-0.290252 -0.18781,-0.375621 0,-0.239032 0.40977,-0.273179 0.93905,-0.273179 h 0.95613 l -4.3538,7.61487 h 4.52454 c 1.31467,0 2.08299,-1.041496 2.08299,-1.826886 0,-0.46099 -0.23904,-0.819537 -0.75125,-0.819537 -0.63172,0 -0.95612,0.426842 -0.95612,0.734169 0,0.18781 0.10244,0.341474 0.3244,0.358547 z"
             id="path9025" />
          <path
             d="m 113.8196,45.885025 -0.18781,0.904906 v -0.119516 c 0,-0.495137 -0.40977,-0.870758 -1.38297,-0.870758 -2.97082,0 -4.38794,3.670845 -4.38794,5.975795 0,2.03177 1.10979,2.748865 2.2708,2.748865 1.21223,0 2.03177,-0.802464 2.54398,-1.587854 0.13659,0.990275 0.75124,1.587854 1.67322,1.587854 0.92198,0 1.24638,-0.529284 1.70737,-1.724443 -0.11951,0.05122 -0.22195,0.06829 -0.37562,0.06829 -0.47806,0 -0.70002,-0.153663 -0.70002,-0.631727 0,-0.153663 0.0171,-0.3244 0.0683,-0.546358 l 1.2293,-5.805058 z m -1.0415,0.973201 c 0.54636,0 0.70003,0.443916 0.70003,0.648801 l -0.81954,3.858656 c -0.20489,0.990274 -0.92198,1.502485 -1.41712,1.502485 -0.30733,0 -0.85368,-0.01707 -0.85368,-1.331748 0,-1.604928 0.93905,-4.678194 2.39031,-4.678194 z"
             id="path9027" />
        </g>
        <g
           aria-label="Restaurantes"
           id="text3279"
           style="font-size:10.5833px;line-height:1.25;font-family:'Lobster 1.4';-inkscape-font-specification:'Lobster 1.4, ';fill:#ff0000;stroke-width:0.264583">
          <path
             d="m 65.618054,59.136491 -1.439329,6.730979 h 1.523995 l 0.846664,-3.989904 c 0.137583,-0.02117 0.254,-0.04233 0.349249,-0.04233 0.476249,0 0.634998,0.296332 0.634998,0.719664 0,0.804331 -0.560915,2.08491 -0.560915,2.783408 0,0.349249 0.137583,0.709081 0.825498,0.709081 0.253999,0 0.603248,-0.05292 1.047746,-0.179916 -0.253999,-0.09525 -0.412748,-0.380999 -0.412748,-0.698498 0,-0.666748 0.518581,-1.809744 0.518581,-2.677575 0,-0.497415 -0.169332,-0.89958 -0.730247,-1.05833 0.730247,-0.433915 1.142996,-1.164163 1.142996,-1.809744 0,-0.867831 -0.730248,-1.693328 -2.402409,-1.693328 -1.767411,0 -3.714738,1.344079 -3.714738,2.751658 0,0.761998 0.402165,1.02658 1.132413,1.02658 -0.01058,-0.09525 -0.148166,-0.179916 -0.148166,-0.719664 0,-1.608662 1.142996,-2.571742 2.857491,-2.571742 0.825497,0 1.164163,0.518582 1.164163,1.111246 0,0.804331 -0.624415,1.841494 -1.502829,1.841494 h -0.08467 l 0.518581,-2.444742 z"
             id="path9048" />
          <path
             d="m 70.973202,64.152975 c 0,-0.126999 0.01058,-0.275166 0.02117,-0.423332 1.269995,-0.07408 2.434158,-1.015997 2.434158,-2.233076 0,-0.529165 -0.222249,-1.015997 -1.164163,-1.015997 -2.169576,0 -2.85749,2.550575 -2.85749,3.767655 0,1.195913 0.656164,1.682745 1.650994,1.682745 1.407579,0 2.30716,-0.984247 2.910408,-1.957911 h -0.359832 c -0.529165,0.603248 -1.037164,1.068913 -1.873244,1.068913 -0.507999,0 -0.761998,-0.169332 -0.761998,-0.888997 z M 72.613613,61.4754 c 0,0.878414 -0.719664,1.693328 -1.534578,1.746245 0.211666,-1.047747 0.730248,-2.18016 1.269996,-2.18016 0.201083,0 0.264582,0.169333 0.264582,0.433915 z"
             id="path9050" />
          <path
             d="m 77.651252,63.973059 c -0.201082,0.169333 -0.476248,0.359832 -0.761997,0.529165 0.03175,-0.126999 0.04233,-0.253999 0.04233,-0.402165 0,-0.698498 -0.105833,-1.111247 -0.232833,-3.852321 l -1.566328,0.211666 c -0.328082,1.037163 -0.709081,2.08491 -1.301746,3.132656 -0.285749,0.137583 -0.560915,0.497415 -0.560915,0.984247 0,0.645582 0.465665,1.354663 1.545162,1.354663 0.539748,0 1.217079,-0.169333 1.661578,-0.634998 0.486832,-0.285749 1.068913,-0.687915 1.619245,-1.322913 z m -3.069157,0 c 0,-0.179916 -0.105833,-0.306916 -0.243416,-0.370415 0.349249,-0.677332 0.645582,-1.312329 0.857248,-2.000244 0.105833,1.629828 0.201082,1.95791 0.201082,2.508242 0,0.740831 -0.455081,0.984247 -0.920747,0.984247 -0.465665,0 -0.645581,-0.243416 -0.645581,-0.740831 0.05292,0.105833 0.179916,0.137583 0.285749,0.137583 0.275166,0 0.465665,-0.264583 0.465665,-0.518582 z"
             id="path9052" />
          <path
             d="m 78.688415,59.115325 -0.317499,1.460495 h -0.349249 l -0.08467,0.423332 h 0.349249 l -0.634998,2.973907 c -0.05292,0.253999 -0.08467,0.486832 -0.08467,0.687915 0,0.888997 0.497415,1.269996 1.132413,1.269996 0.571499,0 1.619245,-0.232833 2.222493,-1.957911 h -0.444498 c -0.15875,0.529165 -0.539748,0.931331 -0.952497,0.931331 -0.296333,0 -0.433915,-0.09525 -0.433915,-0.391583 0,-0.09525 0.01058,-0.201082 0.04233,-0.338665 l 0.677331,-3.17499 h 0.634998 l 0.08467,-0.423332 h -0.634998 l 0.359833,-1.672161 z"
             id="path9054" />
          <path
             d="m 84.032963,60.57582 -0.116416,0.560915 v -0.07408 c 0,-0.306916 -0.253999,-0.539749 -0.857247,-0.539749 -1.841495,0 -2.719908,2.27541 -2.719908,3.704155 0,1.259413 0.687914,1.703912 1.407578,1.703912 0.751415,0 1.24883,-0.486832 1.576912,-0.973664 0.0635,0.634998 0.444499,0.973664 1.037163,0.973664 0.571499,0 1.523996,-0.232833 2.127244,-1.957911 H 86.04379 c -0.158749,0.529165 -0.444498,0.99483 -0.857247,0.99483 -0.296333,0 -0.433915,-0.158749 -0.433915,-0.455082 0,-0.09525 0.01058,-0.201082 0.04233,-0.338665 l 0.761997,-3.598322 z m -0.645581,0.603248 c 0.338665,0 0.433915,0.275166 0.433915,0.402165 l -0.507998,2.391826 c -0.127,0.613832 -0.571498,0.931331 -0.878414,0.931331 -0.190499,0 -0.529165,-0.01058 -0.529165,-0.825498 0,-0.99483 0.582081,-2.899824 1.481662,-2.899824 z"
             id="path9056" />
          <path
             d="m 89.377521,60.57582 -0.719665,3.397239 c -0.158749,0.529165 -0.433915,0.931331 -0.846664,0.931331 -0.232832,0 -0.317499,-0.1905 -0.317499,-0.433916 0,-0.09525 0.01058,-0.190499 0.03175,-0.296332 l 0.761998,-3.598322 h -1.523995 l -0.719665,3.397239 c -0.05292,0.253999 -0.08467,0.486832 -0.08467,0.687915 0,0.888997 0.497415,1.269996 1.132413,1.269996 0.444499,0 1.037163,-0.137583 1.566328,-1.005414 0.0635,0.656165 0.444499,1.005414 1.047747,1.005414 0.571498,0 1.523995,-0.232833 2.127243,-1.957911 h -0.444498 c -0.15875,0.529165 -0.444499,0.931331 -0.857248,0.931331 -0.296332,0 -0.433915,-0.09525 -0.433915,-0.391583 0,-0.09525 0.01058,-0.201082 0.04233,-0.338665 l 0.761998,-3.598322 z"
             id="path9058" />
          <path
             d="m 92.108002,60.57582 -1.121829,5.29165 h 1.523995 l 0.846664,-4.021654 c 0.264582,-0.243416 0.455082,-0.402165 0.772581,-0.402165 0.317499,0 0.02117,0.698497 0.613831,0.698497 0.518582,0 0.761998,-0.402165 0.761998,-0.772581 0,-0.402165 -0.254,-0.793747 -0.730248,-0.793747 -0.507998,0 -0.910164,0.338666 -1.280579,0.656165 l 0.137583,-0.656165 z"
             id="path9060" />
          <path
             d="m 98.923642,60.57582 -0.116417,0.560915 v -0.07408 c 0,-0.306916 -0.253999,-0.539749 -0.857247,-0.539749 -1.841494,0 -2.719908,2.27541 -2.719908,3.704155 0,1.259413 0.687914,1.703912 1.407579,1.703912 0.751414,0 1.248829,-0.486832 1.576911,-0.973664 0.0635,0.634998 0.444499,0.973664 1.037164,0.973664 0.571498,0 1.523996,-0.232833 2.127246,-1.957911 h -0.4445 c -0.15875,0.529165 -0.4445,0.99483 -0.85725,0.99483 -0.296331,0 -0.433914,-0.158749 -0.433914,-0.455082 0,-0.09525 0.01058,-0.201082 0.04233,-0.338665 l 0.762004,-3.598322 z m -0.645582,0.603248 c 0.338666,0 0.433916,0.275166 0.433916,0.402165 l -0.507999,2.391826 c -0.126999,0.613832 -0.571498,0.931331 -0.878414,0.931331 -0.190499,0 -0.529165,-0.01058 -0.529165,-0.825498 0,-0.99483 0.582082,-2.899824 1.481662,-2.899824 z"
             id="path9062" />
          <path
             d="m 103.98245,62.036315 c 0,0.677331 -0.47625,1.979077 -0.47625,2.698742 0,0.603248 0.32808,1.195913 1.24883,1.195913 0.56092,0 1.37583,-0.22225 1.96849,-1.957911 h -0.44449 c -0.23284,0.550332 -0.42334,0.931331 -0.889,0.931331 -0.3175,0 -0.42333,-0.179917 -0.42333,-0.444499 0,-0.592665 0.508,-1.873244 0.508,-2.730491 0,-0.846664 -0.49742,-1.195913 -1.17475,-1.195913 -0.32808,0 -0.79375,0.08467 -1.23825,0.592665 l 0.11642,-0.550332 h -1.524 l -1.12183,5.29165 h 1.524 l 0.71966,-3.397239 c 0.15875,-0.529165 0.4445,-0.973664 0.8255,-0.973664 0.254,0 0.381,0.190499 0.381,0.539748 z"
             id="path9064" />
          <path
             d="m 107.31618,59.115325 -0.3175,1.460495 h -0.34925 l -0.0847,0.423332 h 0.34925 l -0.635,2.973907 c -0.0529,0.253999 -0.0847,0.486832 -0.0847,0.687915 0,0.888997 0.49741,1.269996 1.13241,1.269996 0.5715,0 1.61925,-0.232833 2.22249,-1.957911 h -0.44449 c -0.15875,0.529165 -0.53975,0.931331 -0.9525,0.931331 -0.29633,0 -0.43392,-0.09525 -0.43392,-0.391583 0,-0.09525 0.0106,-0.201082 0.0423,-0.338665 l 0.67733,-3.17499 h 0.635 l 0.0847,-0.423332 h -0.635 l 0.35984,-1.672161 z"
             id="path9066" />
          <path
             d="m 110.53349,64.152975 c 0,-0.126999 0.0106,-0.275166 0.0212,-0.423332 1.27,-0.07408 2.43416,-1.015997 2.43416,-2.233076 0,-0.529165 -0.22225,-1.015997 -1.16416,-1.015997 -2.16958,0 -2.85749,2.550575 -2.85749,3.767655 0,1.195913 0.65616,1.682745 1.65099,1.682745 1.40758,0 2.30716,-0.984247 2.91041,-1.957911 h -0.35983 c -0.52917,0.603248 -1.03717,1.068913 -1.87325,1.068913 -0.508,0 -0.76199,-0.169332 -0.76199,-0.888997 z M 112.1739,61.4754 c 0,0.878414 -0.71967,1.693328 -1.53458,1.746245 0.21166,-1.047747 0.73025,-2.18016 1.26999,-2.18016 0.20109,0 0.26459,0.169333 0.26459,0.433915 z"
             id="path9068" />
          <path
             d="m 114.69271,60.459404 c -0.32808,1.037163 -0.70908,2.08491 -1.30175,3.132656 -0.28575,0.137583 -0.56091,0.497415 -0.56091,0.984247 0,0.645582 0.46566,1.354663 1.54516,1.354663 0.86783,0 2.11666,-0.455082 2.11666,-1.830911 0,-0.698498 -0.10583,-1.111247 -0.23283,-3.852321 z m -0.55033,3.513655 c 0,-0.179916 -0.10584,-0.306916 -0.24342,-0.370415 0.34925,-0.677332 0.64558,-1.312329 0.85725,-2.000244 0.10583,1.629828 0.20108,1.95791 0.20108,2.508242 0,0.740831 -0.45508,0.984247 -0.92075,0.984247 -0.46566,0 -0.64558,-0.243416 -0.64558,-0.740831 0.0529,0.105833 0.17992,0.137583 0.28575,0.137583 0.27517,0 0.46567,-0.264583 0.46567,-0.518582 z"
             id="path9070" />
        </g>
      </g>
    </g>
  </g>
</svg>
